# xmcd
#
# Track frame offsets:
#	182
#	14075
#	22712
#	34455
#	47660
#	59512
#	71805
#	84927
#	95960
#	122595
#	135290
#	147627
#	160207
#	170287
#	181302
#	194155
#	216917
#	230707
#
# Disc length: 3257
#
# Revision: 2
# Processed by: cddbd v1.5.1PL0 Copyright (c) Steve Scherf et al.
# Submitted via: EasyCDDAExtractor 6.0.0.1
# Normalized: r1:DSETVAR1
#
DISCID=0d0cb712
DTITLE=Various Artist - Levis´s Midnight colection blues 1
DYEAR=1900
DGENRE=
TTITLE0=Louis Amstrong - St Louis Blues
TTITLE1=Billy Holliday - Please don`t talk about me when Im gone
TTITLE2=Ike and Tina Turner - Poor fool
TTITLE3=Muddy Waters - Mannish boy
TTITLE4=Etta James - I`rather go blind
TTITLE5=Fats Domino - Blue monday
TTITLE6=Brownie McGhee - The blues have a baby
TTITLE7=Jimmy Reed - Take out some insurance
TTITLE8=Albert King - Angel of mercy
TTITLE9=Carl Perkins - Honey dont
TTITLE10=Elmore James - The sky is crying
TTITLE11=Rock Hill and Johnny Wintwer - Bad girl blues
TTITLE12=Irma Thomas - Whis someone would care
TTITLE13=Howlin Wolf - Little red lobster
TTITLE14=Robert Cray - Too many crooks
TTITLE15=Jerry Lee Lewis - Whole lotta shakin goin on
TTITLE16=Chuck Berry - In the wee wee hours
TTITLE17=Charlie Parker - Parker´s mood
EXTD=
EXTT0=
EXTT1=
EXTT2=
EXTT3=
EXTT4=
EXTT5=
EXTT6=
EXTT7=
EXTT8=
EXTT9=
EXTT10=
EXTT11=
EXTT12=
EXTT13=
EXTT14=
EXTT15=
EXTT16=
EXTT17=
PLAYORDER=
